 http://www.imdb.com/title/tt2246595/

General
Complete name                            : Blood Money 2012 ScamRip.avi
Format                                   : AVI
Format/Info                              : Audio Video Interleave
File size                                : 494 MiB
Duration                                 : 1h 20mn
Overall bit rate                         : 860 Kbps
Writing library                          : Boilsoft AVI tool build 1/release

Video
ID                                       : 0
Format                                   : MPEG-4 Visual
Format profile                           : Advanced Simple@L5
Format settings, BVOP                    : 2
Format settings, QPel                    : No
Format settings, GMC                     : No warppoints
Format settings, Matrix                  : Default (H.263)
Codec ID                                 : XVID
Codec ID/Hint                            : XviD
Duration                                 : 1h 20mn
Bit rate                                 : 722 Kbps
Width                                    : 592 pixels
Height                                   : 272 pixels
Display aspect ratio                     : 2.2:1
Frame rate                               : 25.000 fps
Color space                              : YUV
Chroma subsampling                       : 4:2:0
Bit depth                                : 8 bits
Scan type                                : Progressive
Compression mode                         : Lossy
Bits/(Pixel*Frame)                       : 0.179
Stream size                              : 415 MiB (84%)
Writing library                          : XviD 1.2.1 (UTC 2008-12-04)

Audio
ID                                       : 1
Format                                   : MPEG Audio
Format version                           : Version 1
Format profile                           : Layer 3
Mode                                     : Joint stereo
Mode extension                           : MS Stereo
Codec ID                                 : 55
Codec ID/Hint                            : MP3
Duration                                 : 1h 20mn
Bit rate mode                            : Constant
Bit rate                                 : 128 Kbps
Channel(s)                               : 2 channels
Sampling rate                            : 44.1 KHz
Compression mode                         : Lossy
Stream size                              : 73.6 MiB (15%)
Alignment                                : Split accross interleaves
Interleave, duration                     : 40 ms (1.00 video frame)
Interleave, preload duration             : 500 ms
Writing library                          : LAME3.98r
Encoding settings                        : -m j -V 4 -q 2 -lowpass 17 -b 128


 
http://www.shotpix.com/images/92250391994428856774.jpg

 
http://i.minus.com/jbdy4dIfjMkrDT.PNG